{
.appVersion = "3343";
.formatVersion = 3;
axes = (
{
name = Weight;
tag = wght;
}
);
date = "2025-06-22 16:38:40 +0000";
familyName = Brodine;
fontMaster = (
{
axesValues = (
200
);
iconName = Bold;
id = m003;
metricValues = (
{
over = 16;
pos = 700;
},
{
over = 16;
pos = 650;
},
{
over = 16;
pos = 450;
},
{
over = -16;
},
{
over = -16;
pos = -200;
},
{
}
);
name = Bold;
userData = {
GSCornerRadius = 20;
GSOffsetHorizontal = 30;
GSOffsetVertical = 30;
};
}
);
glyphs = (
{
glyphname = A;
lastChange = "2025-07-13 22:52:24 +0000";
layers = (
{
layerId = m003;
shapes = (
{
closed = 1;
nodes = (
(171,0,l),
(408,650,l),
(253,650,l),
(14,0,l)
);
},
{
closed = 1;
nodes = (
(408,650,l),
(253,650,l),
(519,0,l),
(656,0,l)
);
},
{
closed = 1;
nodes = (
(489,157,l),
(489,292,l),
(199,292,l),
(199,157,l)
);
}
);
width = 680;
}
);
unicode = 65;
},
{
glyphname = B;
lastChange = "2025-07-14 16:01:29 +0000";
layers = (
{
layerId = m003;
shapes = (
{
closed = 1;
nodes = (
(57,0,l),
(445,0,ls),
(552,0,o),
(650,74,o),
(650,201,cs),
(650,267,o),
(613,333,o),
(547,375,c),
(572,403,o),
(590,440,o),
(590,479,cs),
(590,589,o),
(520,650,o),
(385,650,cs),
(57,650,l)
);
},
{
closed = 1;
nodes = (
(202,281,l),
(415,281,ls),
(482,281,o),
(510,261,o),
(510,208,cs),
(510,155,o),
(482,135,o),
(415,135,cs),
(202,135,l)
);
},
{
closed = 1;
nodes = (
(202,515,l),
(385,515,ls),
(427,515,o),
(450,495,o),
(450,466,cs),
(450,437,o),
(427,417,o),
(385,417,c),
(202,416,l)
);
}
);
width = 680;
}
);
unicode = 66;
},
{
glyphname = C;
lastChange = "2025-07-14 16:01:29 +0000";
layers = (
{
layerId = m003;
shapes = (
{
closed = 1;
nodes = (
(507,161,o),
(457,131,o),
(352,131,cs),
(236,131,o),
(172,189,o),
(172,324,cs),
(172,458,o),
(236,517,o),
(352,517,cs),
(457,517,o),
(507,487,o),
(529,419,c),
(664,492,l),
(617,614,o),
(516,666,o),
(355,666,cs),
(160,666,o),
(29,567,o),
(29,324,cs),
(29,81,o),
(160,-18,o),
(355,-18,cs),
(516,-18,o),
(617,34,o),
(664,156,c),
(529,229,l)
);
}
);
width = 680;
}
);
unicode = 67;
},
{
glyphname = D;
lastChange = "2025-07-11 00:50:13 +0000";
layers = (
{
layerId = m003;
shapes = (
{
closed = 1;
nodes = (
(57,2,l),
(202,2,l),
(202,650,l),
(57,650,l)
);
},
{
closed = 1;
nodes = (
(335,524,ls),
(433,524,o),
(512,456,o),
(512,323,cs),
(512,187,o),
(433,126,o),
(335,126,cs),
(123,126,l),
(71,0,l),
(340,0,ls),
(500,0,o),
(655,96,o),
(655,323,cs),
(655,544,o),
(500,650,o),
(340,650,cs),
(71,650,l),
(123,524,l)
);
}
);
width = 680;
}
);
unicode = 68;
},
{
glyphname = E;
lastChange = "2025-07-11 00:40:51 +0000";
layers = (
{
layerId = m003;
shapes = (
{
closed = 1;
nodes = (
(57,0,l),
(491,0,l),
(491,135,l),
(202,135,l),
(202,252,l),
(354,252,l),
(354,387,l),
(202,387,l),
(202,515,l),
(491,515,l),
(491,650,l),
(57,650,l)
);
}
);
width = 520;
}
);
unicode = 69;
},
{
glyphname = F;
lastChange = "2025-07-11 00:41:43 +0000";
layers = (
{
layerId = m003;
shapes = (
{
closed = 1;
nodes = (
(57,0,l),
(202,0,l),
(202,242,l),
(374,242,l),
(374,377,l),
(202,377,l),
(202,515,l),
(491,515,l),
(491,650,l),
(57,650,l)
);
}
);
width = 520;
}
);
unicode = 70;
},
{
glyphname = G;
lastChange = "2025-07-14 16:01:29 +0000";
layers = (
{
layerId = m003;
shapes = (
{
closed = 1;
nodes = (
(478,-2,l),
(623,-2,l),
(623,347,l),
(478,347,l)
);
},
{
closed = 1;
nodes = (
(623,242,l),
(623,377,l),
(385,377,l),
(385,242,l)
);
},
{
closed = 1;
nodes = (
(478,156,o),
(434,108,o),
(347,108,cs),
(239,108,o),
(166,173,o),
(166,324,cs),
(166,475,o),
(238,540,o),
(347,540,cs),
(427,540,o),
(483,507,o),
(510,431,c),
(623,492,l),
(576,614,o),
(475,666,o),
(340,666,cs),
(160,666,o),
(29,567,o),
(29,324,cs),
(29,81,o),
(160,-16,o),
(340,-16,cs),
(482,-16,o),
(525,54,o),
(525,203,c),
(478,243,l)
);
}
);
width = 680;
}
);
unicode = 71;
},
{
glyphname = H;
lastChange = "2025-07-11 00:38:54 +0000";
layers = (
{
layerId = m003;
shapes = (
{
closed = 1;
nodes = (
(52,2,l),
(197,2,l),
(197,650,l),
(52,650,l)
);
},
{
closed = 1;
nodes = (
(483,2,l),
(628,2,l),
(628,650,l),
(483,650,l)
);
},
{
closed = 1;
nodes = (
(579,269,l),
(579,404,l),
(96,404,l),
(96,269,l)
);
}
);
width = 680;
}
);
unicode = 72;
},
{
glyphname = I;
lastChange = "2025-07-11 00:42:50 +0000";
layers = (
{
layerId = m003;
shapes = (
{
closed = 1;
nodes = (
(27,650,l),
(27,0,l),
(172,0,l),
(172,650,l)
);
}
);
width = 200;
}
);
unicode = 73;
},
{
glyphname = J;
lastChange = "2025-07-14 16:01:29 +0000";
layers = (
{
layerId = m003;
shapes = (
{
closed = 0;
nodes = (
(461,231,l),
(461,650,l)
);
},
{
closed = 1;
nodes = (
(461,650,l),
(51,650,l),
(51,515,l),
(316,515,l),
(316,239,ls),
(316,136,o),
(240,106,o),
(174,106,cs),
(140,106,o),
(99,138,o),
(96,142,c),
(34,33,l),
(74,1,o),
(137,-16,o),
(200,-16,cs),
(366,-16,o),
(461,48,o),
(461,231,cs)
);
}
);
width = 520;
}
);
unicode = 74;
},
{
glyphname = K;
lastChange = "2025-07-14 00:48:39 +0000";
layers = (
{
layerId = m003;
shapes = (
{
closed = 1;
nodes = (
(57,2,l),
(202,2,l),
(202,650,l),
(57,650,l)
);
},
{
closed = 1;
nodes = (
(354,418,l),
(194,418,l),
(458,0,l),
(618,0,l)
);
},
{
closed = 1;
nodes = (
(58,236,l),
(203,236,l),
(592,650,l),
(410,650,l),
(58,273,l)
);
}
);
width = 620;
}
);
unicode = 75;
},
{
glyphname = L;
lastChange = "2025-07-11 00:43:06 +0000";
layers = (
{
layerId = m003;
shapes = (
{
closed = 1;
nodes = (
(57,2,l),
(61,2,l),
(61,0,l),
(460,0,l),
(460,135,l),
(202,135,l),
(202,650,l),
(57,650,l)
);
}
);
width = 520;
}
);
unicode = 76;
},
{
glyphname = M;
lastChange = "2025-07-14 00:25:32 +0000";
layers = (
{
layerId = m003;
shapes = (
{
closed = 1;
nodes = (
(202,1,l),
(202,501,l),
(134,501,l),
(367,0,l),
(473,0,l),
(704,496,l),
(638,496,l),
(638,1,l),
(783,1,l),
(783,650,l),
(678,650,l),
(624,648,l),
(374,112,l),
(466,112,l),
(216,648,l),
(162,650,l),
(57,650,l),
(57,1,l)
);
}
);
width = 840;
}
);
unicode = 77;
},
{
glyphname = N;
lastChange = "2025-07-11 00:55:30 +0000";
layers = (
{
layerId = m003;
shapes = (
{
closed = 1;
nodes = (
(57,0,l),
(202,0,l),
(202,400,l),
(478,0,l),
(623,0,l),
(623,650,l),
(478,650,l),
(478,259,l),
(202,650,l),
(57,650,l)
);
}
);
width = 680;
}
);
unicode = 78;
},
{
glyphname = O;
lastChange = "2025-07-14 01:19:25 +0000";
layers = (
{
layerId = m003;
shapes = (
{
closed = 1;
nodes = (
(172,474,o),
(247,539,o),
(340,540,cs),
(434,539,o),
(508,474,o),
(508,325,cs),
(508,176,o),
(434,111,o),
(340,110,cs),
(247,111,o),
(172,176,o),
(172,325,cs)
);
},
{
closed = 1;
nodes = (
(29,84,o),
(180,-15,o),
(340,-16,cs),
(501,-15,o),
(651,84,o),
(651,325,cs),
(651,566,o),
(501,665,o),
(340,666,cs),
(180,665,o),
(29,566,o),
(29,325,cs)
);
}
);
width = 680;
}
);
unicode = 79;
},
{
glyphname = P;
lastChange = "2025-07-11 00:59:42 +0000";
layers = (
{
layerId = m003;
shapes = (
{
closed = 1;
nodes = (
(202,0,l),
(202,650,l),
(57,650,l),
(57,0,l)
);
},
{
closed = 1;
nodes = (
(71,170,l),
(270,170,ls),
(387,170,o),
(508,234,o),
(508,411,cs),
(508,588,o),
(387,650,o),
(270,650,cs),
(71,650,l),
(71,515,l),
(270,515,ls),
(319,515,o),
(365,470,o),
(365,411,cs),
(365,352,o),
(319,305,o),
(270,305,cs),
(71,305,l)
);
}
);
width = 520;
}
);
unicode = 80;
},
{
glyphname = Q;
lastChange = "2025-07-14 01:11:43 +0000";
layers = (
{
layerId = m003;
shapes = (
{
closed = 1;
nodes = (
(172,474,o),
(247,539,o),
(340,540,cs),
(434,539,o),
(508,474,o),
(508,325,cs),
(508,176,o),
(434,111,o),
(340,110,cs),
(247,111,o),
(172,176,o),
(172,325,cs)
);
},
{
closed = 1;
nodes = (
(29,84,o),
(180,-15,o),
(340,-16,cs),
(501,-15,o),
(651,84,o),
(651,325,cs),
(651,566,o),
(501,665,o),
(340,666,cs),
(180,665,o),
(29,566,o),
(29,325,cs)
);
},
{
closed = 1;
nodes = (
(552,-57,l),
(656,30,l),
(586,114,l),
(483,26,l)
);
}
);
width = 680;
}
);
unicode = 81;
},
{
glyphname = R;
lastChange = "2025-07-14 00:29:27 +0000";
layers = (
{
layerId = m003;
shapes = (
{
closed = 1;
nodes = (
(192,298,l),
(358,0,l),
(511,0,l),
(345,298,l)
);
},
{
closed = 1;
nodes = (
(202,0,l),
(202,650,l),
(57,650,l),
(57,0,l)
);
},
{
closed = 1;
nodes = (
(71,170,l),
(270,170,ls),
(387,170,o),
(508,234,o),
(508,411,cs),
(508,588,o),
(387,650,o),
(270,650,cs),
(71,650,l),
(71,515,l),
(270,515,ls),
(319,515,o),
(365,470,o),
(365,411,cs),
(365,352,o),
(319,305,o),
(270,305,cs),
(71,305,l)
);
}
);
width = 520;
}
);
unicode = 82;
},
{
glyphname = S;
lastChange = "2025-07-14 16:01:29 +0000";
layers = (
{
layerId = m003;
shapes = (
{
closed = 1;
nodes = (
(154,665,o),
(36,611,o),
(36,463,cs),
(36,368,o),
(117,311,o),
(169,291,cs),
(230,268,ls),
(269,253,o),
(346,222,o),
(346,181,cs),
(346,154,o),
(332,119,o),
(245,119,cs),
(190,119,o),
(147,140,o),
(108,179,c),
(22,76,l),
(79,29,o),
(172,-16,o),
(259,-16,cs),
(381,-16,o),
(496,68,o),
(496,193,cs),
(496,285,o),
(441,336,o),
(342,374,cs),
(282,397,ls),
(217,422,o),
(185,435,o),
(185,477,cs),
(185,528,o),
(238,530,o),
(268,530,cs),
(319,530,o),
(360,514,o),
(393,484,c),
(454,594,l),
(414,634,o),
(348,665,o),
(248,665,cs)
);
}
);
width = 520;
}
);
unicode = 83;
},
{
glyphname = T;
lastChange = "2025-07-11 00:43:39 +0000";
layers = (
{
layerId = m003;
shapes = (
{
closed = 1;
nodes = (
(187,2,l),
(332,2,l),
(332,650,l),
(187,650,l)
);
},
{
closed = 0;
nodes = (
(499,650,l),
(21,650,l)
);
},
{
closed = 1;
nodes = (
(21,650,l),
(21,515,l),
(499,515,l),
(499,650,l)
);
}
);
width = 520;
}
);
unicode = 84;
},
{
glyphname = U;
lastChange = "2025-07-13 22:53:48 +0000";
layers = (
{
layerId = m003;
shapes = (
{
closed = 1;
nodes = (
(480,650,l),
(625,650,l),
(625,259,ls),
(625,76,o),
(530,-18,o),
(340,-18,cs),
(150,-18,o),
(55,76,o),
(55,259,cs),
(55,650,l),
(200,650,l),
(200,241,ls),
(200,152,o),
(245,108,o),
(340,108,cs),
(435,108,o),
(480,152,o),
(480,241,cs)
);
}
);
width = 680;
}
);
unicode = 85;
},
{
glyphname = V;
lastChange = "2025-07-14 00:32:08 +0000";
layers = (
{
layerId = m003;
shapes = (
{
closed = 1;
nodes = (
(292,0,l),
(388,0,l),
(652,650,l),
(514,650,l),
(281,98,l),
(399,98,l),
(172,650,l),
(28,650,l)
);
}
);
width = 680;
}
);
unicode = 86;
},
{
glyphname = W;
lastChange = "2025-07-14 00:35:58 +0000";
layers = (
{
layerId = m003;
shapes = (
{
closed = 1;
nodes = (
(186,0,l),
(295,0,l),
(451,522,l),
(379,521,l),
(554,0,l),
(663,0,l),
(831,650,l),
(692,650,l),
(558,133,l),
(658,133,l),
(484,650,l),
(345,650,l),
(191,133,l),
(293,133,l),
(147,650,l),
(8,650,l)
);
}
);
width = 840;
}
);
unicode = 87;
},
{
glyphname = X;
lastChange = "2025-07-13 22:56:44 +0000";
layers = (
{
layerId = m003;
shapes = (
{
closed = 1;
nodes = (
(187,650,l),
(37,650,l),
(353,1,l),
(503,1,l)
);
},
{
closed = 1;
nodes = (
(316,286,l),
(493,650,l),
(343,650,l),
(234,425,l)
);
},
{
closed = 1;
nodes = (
(224,425,l),
(17,1,l),
(167,1,l),
(306,286,l)
);
}
);
width = 520;
}
);
unicode = 88;
},
{
glyphname = Y;
lastChange = "2025-07-13 23:50:27 +0000";
layers = (
{
layerId = m003;
shapes = (
{
closed = 1;
nodes = (
(187,303,l),
(187,0,l),
(332,0,l),
(332,303,l),
(509,650,l),
(359,650,l),
(221,381,l),
(299,381,l),
(161,650,l),
(11,650,l)
);
}
);
width = 520;
}
);
unicode = 89;
},
{
glyphname = Z;
lastChange = "2025-07-14 00:50:20 +0000";
layers = (
{
layerId = m003;
shapes = (
{
closed = 1;
nodes = (
(31,135,l),
(201,135,l),
(487,515,l),
(317,515,l)
);
},
{
closed = 1;
nodes = (
(31,135,l),
(31,0,l),
(489,0,l),
(489,135,l)
);
},
{
closed = 1;
nodes = (
(31,650,l),
(31,515,l),
(489,515,l),
(489,650,l)
);
}
);
width = 520;
}
);
unicode = 90;
},
{
glyphname = a;
lastChange = "2025-07-14 16:01:29 +0000";
layers = (
{
layerId = m003;
shapes = (
{
closed = 1;
nodes = (
(214,306,ls),
(42,306,o),
(29,195,o),
(29,122,cs),
(29,62,o),
(81,-17,o),
(191,-17,cs),
(256,-17,o),
(327,11,o),
(344,52,c),
(335,163,l),
(323,103,o),
(260,86,o),
(230,86,cs),
(189,86,o),
(158,102,o),
(158,144,cs),
(158,182,o),
(180,190,o),
(237,190,c),
(335,190,l),
(335,306,l)
);
},
{
closed = 1;
nodes = (
(194,338,l),
(217,364,o),
(234,375,o),
(266,375,cs),
(293,375,o),
(335,364,o),
(335,314,cs),
(334,56,l),
(344,52,l),
(354,0,l),
(470,0,l),
(471,314,ls),
(471,430,o),
(406,464,o),
(280,464,cs),
(182,464,o),
(120,433,o),
(91,398,c)
);
}
);
width = 520;
}
);
unicode = 97;
},
{
glyphname = b;
lastChange = "2025-07-10 01:42:44 +0000";
layers = (
{
layerId = m003;
shapes = (
{
closed = 1;
nodes = (
(49,650,l),
(49,-3,l),
(165,-3,l),
(175,49,l),
(185,43,l),
(185,650,l)
);
},
{
closed = 1;
nodes = (
(185,223,l),
(185,320,o),
(219,347,o),
(276,347,cs),
(323,347,o),
(366,320,o),
(366,223,cs),
(366,135,o),
(323,100,o),
(276,100,cs),
(219,100,o),
(185,135,o),
(185,223,c),
(146,213,l),
(146,46,o),
(201,-16,o),
(300,-16,cs),
(397,-16,o),
(491,56,o),
(491,223,cs),
(491,400,o),
(397,463,o),
(300,463,cs),
(221,463,o),
(129,423,o),
(129,263,c)
);
}
);
width = 520;
}
);
unicode = 98;
},
{
glyphname = c;
lastChange = "2025-07-14 16:01:29 +0000";
layers = (
{
layerId = m003;
shapes = (
{
closed = 1;
nodes = (
(201,348,o),
(153,302,o),
(153,225,cs),
(153,149,o),
(200,102,o),
(285,102,cs),
(339,102,o),
(382,135,o),
(401,155,c),
(500,98,l),
(473,30,o),
(386,-15,o),
(290,-15,cs),
(137,-15,o),
(29,57,o),
(29,225,cs),
(29,393,o),
(138,465,o),
(290,465,cs),
(386,465,o),
(473,420,o),
(500,352,c),
(401,295,l),
(387,320,o),
(339,348,o),
(285,348,cs)
);
}
);
width = 520;
}
);
unicode = 99;
},
{
glyphname = d;
lastChange = "2025-07-10 01:35:05 +0000";
layers = (
{
layerId = m003;
shapes = (
{
closed = 1;
nodes = (
(335,43,l),
(345,49,l),
(355,-3,l),
(471,-3,l),
(471,650,l),
(335,650,l)
);
},
{
closed = 1;
nodes = (
(391,423,o),
(299,463,o),
(220,463,cs),
(123,463,o),
(29,400,o),
(29,223,cs),
(29,56,o),
(123,-16,o),
(220,-16,cs),
(319,-16,o),
(374,46,o),
(374,213,c),
(335,223,l),
(335,135,o),
(301,100,o),
(244,100,cs),
(197,100,o),
(154,135,o),
(154,223,cs),
(154,320,o),
(197,347,o),
(244,347,cs),
(301,347,o),
(335,320,o),
(335,223,c),
(391,263,l)
);
}
);
width = 520;
}
);
unicode = 100;
},
{
glyphname = e;
lastChange = "2025-07-14 16:01:29 +0000";
layers = (
{
layerId = m003;
shapes = (
{
closed = 1;
nodes = (
(66,176,l),
(488,176,l),
(440,282,l),
(66,282,l)
);
},
{
closed = 1;
nodes = (
(366,143,l),
(352,120,o),
(332,98,o),
(265,98,cs),
(195,98,o),
(151,131,o),
(151,226,cs),
(151,327,o),
(195,354,o),
(260,354,cs),
(325,354,o),
(369,328,o),
(369,226,cs),
(369,217,o),
(368,184,o),
(366,176,c),
(488,176,l),
(490,189,o),
(491,212,o),
(491,226,cs),
(491,413,o),
(387,465,o),
(260,465,cs),
(133,465,o),
(29,415,o),
(29,226,cs),
(29,49,o),
(133,-13,o),
(270,-13,cs),
(407,-13,o),
(446,41,o),
(470,76,c)
);
}
);
width = 520;
}
);
unicode = 101;
},
{
glyphname = f;
lastChange = "2025-07-14 01:12:48 +0000";
layers = (
{
layerId = m003;
shapes = (
{
closed = 1;
nodes = (
(141,650,o),
(107,620,o),
(107,543,cs),
(107,0,l),
(243,0,l),
(243,490,ls),
(243,519,o),
(254,535,o),
(290,535,cs),
(349,535,l),
(349,650,l),
(233,650,ls)
);
},
{
closed = 1;
nodes = (
(349,325,l),
(349,450,l),
(21,450,l),
(21,325,l)
);
}
);
width = 360;
}
);
unicode = 102;
},
{
glyphname = g;
lastChange = "2025-07-14 16:01:29 +0000";
layers = (
{
layerId = m003;
shapes = (
{
closed = 1;
nodes = (
(335,-79,o),
(306,-109,o),
(237,-109,c),
(196,-109,o),
(170,-84,o),
(148,-54,c),
(65,-123,l),
(103,-180,o),
(182,-216,o),
(257,-216,cs),
(379,-216,o),
(480,-127,o),
(480,0,c),
(335,0,l)
);
},
{
closed = 1;
nodes = (
(480,0,l),
(480,453,l),
(355,453,l),
(345,401,l),
(335,407,l),
(335,0,l)
);
},
{
closed = 1;
nodes = (
(335,227,l),
(334,130,o),
(300,103,o),
(243,103,cs),
(196,103,o),
(153,130,o),
(153,227,cs),
(153,315,o),
(196,350,o),
(243,350,cs),
(300,350,o),
(334,315,o),
(335,227,c),
(394,237,l),
(394,404,o),
(319,466,o),
(220,466,cs),
(113,466,o),
(29,394,o),
(29,227,cs),
(29,50,o),
(113,-13,o),
(220,-13,cs),
(299,-13,o),
(391,27,o),
(391,187,c)
);
}
);
width = 520;
}
);
unicode = 103;
},
{
glyphname = h;
lastChange = "2025-07-08 23:28:37 +0000";
layers = (
{
layerId = m003;
shapes = (
{
closed = 1;
nodes = (
(335,0,l),
(471,0,l),
(471,306,ls),
(471,432,o),
(398,466,o),
(315,466,cs),
(154,466,o),
(131,286,o),
(116,223,c),
(185,223,l),
(185,303,o),
(207,350,o),
(263,350,cs),
(309,350,o),
(335,334,o),
(335,256,cs)
);
},
{
closed = 1;
nodes = (
(185,700,l),
(49,700,l),
(49,0,l),
(185,0,l)
);
}
);
width = 520;
}
);
unicode = 104;
},
{
glyphname = i;
lastChange = "2025-07-14 16:01:29 +0000";
layers = (
{
layerId = m003;
shapes = (
{
closed = 1;
nodes = (
(133,501,o),
(159,526,o),
(159,563,cs),
(159,598,o),
(134,624,o),
(98,624,cs),
(62,624,o),
(36,599,o),
(36,563,cs),
(36,527,o),
(61,501,o),
(98,501,cs)
);
},
{
closed = 1;
nodes = (
(32,450,l),
(32,0,l),
(168,0,l),
(168,450,l)
);
}
);
width = 200;
}
);
unicode = 105;
},
{
glyphname = j;
lastChange = "2025-07-14 16:01:29 +0000";
layers = (
{
layerId = m003;
shapes = (
{
closed = 1;
nodes = (
(-165,-147,l),
(-128,-194,o),
(-64,-216,o),
(-15,-216,cs),
(90,-216,o),
(168,-157,o),
(168,-45,cs),
(168,450,l),
(32,450,l),
(32,-45,ls),
(32,-79,o),
(12,-95,o),
(-17,-95,cs),
(-49,-95,o),
(-74,-77,o),
(-83,-59,c)
);
},
{
closed = 1;
nodes = (
(134,501,o),
(159,526,o),
(159,563,cs),
(159,599,o),
(134,624,o),
(98,624,cs),
(61,624,o),
(36,599,o),
(36,563,cs),
(36,526,o),
(61,501,o),
(98,501,cs)
);
}
);
width = 200;
}
);
unicode = 106;
},
{
glyphname = k;
lastChange = "2025-07-10 01:44:37 +0000";
layers = (
{
layerId = m003;
shapes = (
{
closed = 1;
nodes = (
(49,0,l),
(185,0,l),
(185,700,l),
(49,700,l)
);
},
{
closed = 1;
nodes = (
(336,321,l),
(209,321,l),
(377,0,l),
(504,0,l)
);
},
{
closed = 1;
nodes = (
(53,118,l),
(175,118,l),
(476,450,l),
(320,450,l),
(53,155,l)
);
}
);
width = 520;
}
);
unicode = 107;
},
{
glyphname = l;
lastChange = "2025-07-08 23:19:41 +0000";
layers = (
{
layerId = m003;
shapes = (
{
closed = 1;
nodes = (
(32,700,l),
(32,0,l),
(168,0,l),
(168,700,l)
);
}
);
width = 200;
}
);
unicode = 108;
},
{
glyphname = m;
lastChange = "2025-07-08 23:39:29 +0000";
layers = (
{
layerId = m003;
shapes = (
{
closed = 1;
nodes = (
(185,394,l),
(175,398,l),
(165,450,l),
(49,450,l),
(49,0,l),
(185,0,l)
);
},
{
closed = 1;
nodes = (
(355,0,l),
(493,0,l),
(493,306,ls),
(493,432,o),
(408,466,o),
(310,466,cs),
(164,466,o),
(131,286,o),
(116,223,c),
(185,223,l),
(185,303,o),
(217,350,o),
(273,350,cs),
(322,350,o),
(355,334,o),
(355,256,cs)
);
},
{
closed = 1;
nodes = (
(661,0,l),
(797,0,l),
(797,306,ls),
(797,432,o),
(714,466,o),
(631,466,cs),
(460,466,o),
(417,286,o),
(402,223,c),
(491,223,l),
(491,303,o),
(513,350,o),
(579,350,cs),
(625,350,o),
(661,334,o),
(661,256,cs)
);
}
);
width = 840;
}
);
unicode = 109;
},
{
glyphname = n;
lastChange = "2025-07-14 16:01:29 +0000";
layers = (
{
layerId = m003;
shapes = (
{
closed = 1;
nodes = (
(335,0,l),
(471,0,l),
(471,306,ls),
(471,432,o),
(398,466,o),
(315,466,cs),
(154,466,o),
(131,286,o),
(116,223,c),
(185,223,l),
(185,303,o),
(207,350,o),
(263,350,cs),
(309,350,o),
(335,334,o),
(335,256,cs)
);
},
{
closed = 1;
nodes = (
(185,394,l),
(175,398,l),
(165,450,l),
(49,450,l),
(49,0,l),
(185,0,l)
);
}
);
width = 520;
}
);
unicode = 110;
},
{
glyphname = o;
lastChange = "2025-07-14 16:01:29 +0000";
layers = (
{
layerId = m003;
shapes = (
{
closed = 1;
nodes = (
(377,-13,o),
(491,59,o),
(491,226,cs),
(491,393,o),
(377,465,o),
(260,465,cs),
(143,465,o),
(29,395,o),
(29,226,cs),
(29,59,o),
(143,-13,o),
(260,-13,cs)
);
},
{
closed = 1;
nodes = (
(207,107,o),
(154,145,o),
(154,226,cs),
(154,306,o),
(206,345,o),
(260,345,cs),
(313,345,o),
(366,307,o),
(366,226,cs),
(366,146,o),
(314,107,o),
(260,107,cs)
);
}
);
width = 520;
}
);
unicode = 111;
},
{
glyphname = p;
lastChange = "2025-07-08 23:12:45 +0000";
layers = (
{
layerId = m003;
shapes = (
{
closed = 1;
nodes = (
(185,407,l),
(175,401,l),
(165,453,l),
(49,453,l),
(49,-200,l),
(185,-200,l)
);
},
{
closed = 1;
nodes = (
(129,27,o),
(221,-13,o),
(300,-13,cs),
(397,-13,o),
(491,50,o),
(491,227,cs),
(491,394,o),
(397,466,o),
(300,466,cs),
(201,466,o),
(146,404,o),
(146,237,c),
(185,227,l),
(185,315,o),
(219,350,o),
(276,350,cs),
(323,350,o),
(366,315,o),
(366,227,cs),
(366,130,o),
(323,103,o),
(276,103,cs),
(219,103,o),
(185,130,o),
(185,227,c),
(129,187,l)
);
}
);
width = 520;
}
);
unicode = 112;
},
{
glyphname = q;
lastChange = "2025-07-08 23:15:11 +0000";
layers = (
{
layerId = m003;
shapes = (
{
closed = 1;
nodes = (
(471,-200,l),
(471,453,l),
(355,453,l),
(345,401,l),
(335,407,l),
(335,-200,l)
);
},
{
closed = 1;
nodes = (
(334,227,l),
(334,130,o),
(300,103,o),
(243,103,cs),
(196,103,o),
(153,130,o),
(153,227,cs),
(153,315,o),
(196,350,o),
(243,350,cs),
(300,350,o),
(334,315,o),
(334,227,c),
(373,237,l),
(373,404,o),
(318,466,o),
(219,466,cs),
(122,466,o),
(28,394,o),
(28,227,cs),
(28,50,o),
(122,-13,o),
(219,-13,cs),
(298,-13,o),
(390,27,o),
(390,187,c)
);
}
);
width = 520;
}
);
unicode = 113;
},
{
glyphname = r;
lastChange = "2025-07-14 16:01:29 +0000";
layers = (
{
layerId = m003;
shapes = (
{
closed = 1;
nodes = (
(350,325,l),
(350,450,l),
(302,450,l),
(186,450,o),
(125,369,o),
(125,194,c),
(177,194,l),
(177,306,o),
(244,325,o),
(302,325,c)
);
},
{
closed = 1;
nodes = (
(179,393,l),
(169,397,l),
(159,449,l),
(43,449,l),
(43,0,l),
(179,0,l)
);
}
);
width = 360;
}
);
unicode = 114;
},
{
glyphname = s;
lastChange = "2025-07-14 16:01:29 +0000";
layers = (
{
layerId = m003;
shapes = (
{
closed = 1;
nodes = (
(106,450,o),
(34,422,o),
(34,319,cs),
(34,270,o),
(34,211,o),
(124,166,cs),
(158,149,o),
(217,142,o),
(217,123,cs),
(217,96,o),
(194,101,o),
(176,101,cs),
(146,101,o),
(86,124,o),
(63,140,c),
(22,28,l),
(61,0,o),
(95,-15,o),
(182,-15,cs),
(279,-15,o),
(350,13,o),
(350,118,cs),
(350,226,o),
(265,248,o),
(199,270,cs),
(165,281,o),
(153,287,o),
(153,307,cs),
(153,318,o),
(160,326,o),
(198,326,cs),
(217,326,o),
(265,325,o),
(328,325,c),
(328,450,l),
(294,450,o),
(222,450,o),
(172,450,cs)
);
}
);
width = 360;
}
);
unicode = 115;
},
{
glyphname = t;
lastChange = "2025-07-10 00:56:49 +0000";
layers = (
{
layerId = m003;
shapes = (
{
closed = 1;
nodes = (
(349,0,l),
(349,115,l),
(290,115,ls),
(254,115,o),
(243,131,o),
(243,160,cs),
(243,589,l),
(107,589,l),
(107,107,ls),
(107,30,o),
(141,0,o),
(233,0,cs)
);
},
{
closed = 1;
nodes = (
(349,325,l),
(349,450,l),
(21,450,l),
(21,325,l)
);
}
);
width = 360;
}
);
unicode = 116;
},
{
glyphname = u;
lastChange = "2025-07-08 23:16:01 +0000";
layers = (
{
layerId = m003;
shapes = (
{
closed = 1;
nodes = (
(185,450,l),
(49,450,l),
(49,144,ls),
(49,18,o),
(122,-16,o),
(205,-16,cs),
(366,-16,o),
(389,164,o),
(404,227,c),
(335,227,l),
(335,147,o),
(313,100,o),
(257,100,cs),
(211,100,o),
(185,116,o),
(185,194,cs)
);
},
{
closed = 1;
nodes = (
(335,56,l),
(345,52,l),
(355,0,l),
(471,0,l),
(471,450,l),
(335,450,l)
);
}
);
width = 520;
}
);
unicode = 117;
},
{
glyphname = v;
lastChange = "2025-07-11 00:29:26 +0000";
layers = (
{
layerId = m003;
shapes = (
{
closed = 1;
nodes = (
(202,1,l),
(318,1,l),
(493,450,l),
(354,450,l),
(209,70,l),
(311,70,l),
(167,450,l),
(27,450,l)
);
}
);
width = 520;
}
);
unicode = 118;
},
{
glyphname = w;
lastChange = "2025-07-08 23:38:03 +0000";
layers = (
{
layerId = m003;
shapes = (
{
closed = 1;
nodes = (
(140,1,l),
(268,1,l),
(365,345,l),
(301,345,l),
(402,1,l),
(528,1,l),
(657,450,l),
(531,450,l),
(436,117,l),
(501,117,l),
(404,450,l),
(268,450,l),
(175,117,l),
(235,117,l),
(149,450,l),
(23,450,l)
);
}
);
width = 680;
}
);
unicode = 119;
},
{
glyphname = x;
lastChange = "2025-07-14 01:18:10 +0000";
layers = (
{
layerId = m003;
shapes = (
{
closed = 1;
nodes = (
(335,1,l),
(485,1,l),
(185,449,l),
(35,450,l)
);
},
{
closed = 1;
nodes = (
(185,1,l),
(300,173,l),
(222,280,l),
(35,1,l)
);
},
{
closed = 1;
nodes = (
(310,173,l),
(485,450,l),
(335,449,l),
(232,280,l)
);
}
);
width = 520;
}
);
unicode = 120;
},
{
glyphname = y;
lastChange = "2025-07-14 16:01:29 +0000";
layers = (
{
layerId = m003;
shapes = (
{
closed = 1;
nodes = (
(210,24,l),
(205,-19,l),
(32,452,l),
(171,452,l),
(305,80,l),
(227,80,l),
(358,452,l),
(501,452,l),
(290,-103,ls),
(256,-194,o),
(198,-198,o),
(127,-198,cs),
(75,-198,o),
(75,-197,o),
(27,-197,c),
(27,-75,l),
(27,-77,o),
(80,-75,o),
(112,-75,cs),
(152,-75,o),
(174,-74,o),
(183,-49,cs)
);
}
);
width = 520;
}
);
unicode = 121;
},
{
glyphname = z;
lastChange = "2025-07-10 01:11:29 +0000";
layers = (
{
layerId = m003;
shapes = (
{
closed = 1;
nodes = (
(21,125,l),
(170,125,l),
(339,325,l),
(190,325,l)
);
},
{
closed = 1;
nodes = (
(21,125,l),
(21,0,l),
(339,0,l),
(339,125,l)
);
},
{
closed = 1;
nodes = (
(21,450,l),
(21,325,l),
(339,325,l),
(339,450,l)
);
}
);
width = 360;
}
);
unicode = 122;
},
{
glyphname = v.001;
lastChange = "2025-07-08 23:17:00 +0000";
layers = (
{
layerId = m003;
shapes = (
{
closed = 1;
nodes = (
(202,1,l),
(318,1,l),
(493,450,l),
(354,450,l),
(209,70,l),
(311,70,l),
(167,450,l),
(27,450,l)
);
}
);
width = 520;
}
);
},
{
glyphname = period;
lastChange = "2025-07-08 19:07:24 +0000";
layers = (
{
layerId = m003;
shapes = (
{
closed = 1;
nodes = (
(130,-16,o),
(157,11,o),
(157,51,cs),
(157,91,o),
(130,118,o),
(90,118,cs),
(50,118,o),
(23,91,o),
(23,51,cs),
(23,11,o),
(50,-16,o),
(90,-16,cs)
);
}
);
width = 180;
}
);
unicode = 46;
},
